<svg xmlns="http://www.w3.org/2000/svg" width="800" height="800" aria-hidden="true" class="iconify iconify--fxemoji" viewBox="0 0 512 512"><path fill="#00B89C" d="M417.245 322.145c-12.042 1.336-30.871 3.782-42.231 7.032 2.883-.838 4.097-1.195-.493.128-19.044 5.536-6.853 2.007-.321.109-37.487 10.978-79.641 37.503-103.53 72.66V139c0-11.303-9.163-20.466-20.467-20.466s-20.466 9.163-20.466 20.466v317.589c0 9.087 5.926 16.779 14.12 19.452a537 537 0 0 0-3.061 15.352c-1.926 10.451 7.157 19.523 17.606 17.58 23.91-4.444 62.475-13.193 84.57-26.49 37.036-22.289 64.994-65.775 77.568-106.728.1-.325.175-.568.231-.744 1.172-4.069.816-2.858.006-.071 3.262-11.403 5.563-30.432 6.787-42.573.643-6.371-3.955-10.928-10.319-10.222"/><path fill="#009E83" d="M206.264 502.115c6.502 1.996-18.723-5.427.321.109 4.591 1.323 3.376.966.493.128 11.403 3.262 30.432 5.563 42.573 6.787 6.371.642 10.928-3.956 10.222-10.32-1.336-12.042-3.782-30.871-7.032-42.231.838 2.883 1.195 4.097-.128-.493-5.536-19.044-2.007-6.853-.109-.321-11.484-39.215-39.974-83.551-77.569-106.728-21.95-13.532-60.493-22.267-84.41-26.675-10.451-1.926-19.523 7.157-17.58 17.606 4.444 23.91 13.193 62.475 26.49 84.57 22.29 37.035 65.776 64.994 106.729 77.568"/><path fill="#FF473E" d="M267.106 9.941s.411.318 1.132.933c.706.615 1.824 1.528 3.092 2.719l2.177 1.992 2.443 2.394a145 145 0 0 1 5.781 5.935c8.261 8.893 18.37 21.596 27.28 36.841 8.963 15.244 16.721 33.03 21.768 52.085a206 206 0 0 1 5.599 29.377c1.198 10.004 1.618 20.167 1.423 30.33-.227 10.163-1.039 20.326-2.525 30.33-1.449 10.004-3.599 19.85-6.266 29.377a231 231 0 0 1-9.656 27.472 232 232 0 0 1-5.849 12.724c-1.007 2.054-2.09 4.074-3.143 6.057-1.022 1.982-2.133 3.928-3.222 5.833-8.683 15.244-18.344 27.948-26.193 36.841l-2.839 3.154-2.656 2.781c-1.605 1.727-3.141 3.196-4.365 4.387-2.464 2.382-3.981 3.652-3.981 3.652-9.937 8.319-24.21 8.047-33.806 0 0 0-1.517-1.27-3.981-3.652-1.224-1.191-2.761-2.66-4.365-4.387l-2.656-2.781-2.839-3.154c-7.849-8.893-17.51-21.596-26.193-36.841-1.09-1.906-2.2-3.851-3.222-5.833-1.053-1.982-2.136-4.002-3.143-6.057a232 232 0 0 1-5.849-12.724 231 231 0 0 1-9.656-27.472c-2.667-9.528-4.817-19.373-6.266-29.377-1.485-10.004-2.298-20.167-2.525-30.33-.194-10.163.226-20.326 1.423-30.33a206 206 0 0 1 5.599-29.377c5.046-19.056 12.805-36.841 21.768-52.085 8.91-15.244 19.019-27.948 27.28-36.841 2.044-2.223 4-4.208 5.781-5.935l2.443-2.394 2.177-1.992c1.269-1.191 2.386-2.104 3.092-2.719.72-.615 1.132-.933 1.132-.933 10.168-7.857 24.09-7.504 33.806 0"/><path fill="#FFA9BA" d="M147.596 41.32s.496.124 1.386.394c.877.275 2.242.657 3.848 1.227l2.737.933 3.13 1.186c2.275.848 4.805 1.859 7.504 3.046 10.873 4.716 24.84 12.096 38.623 22.178 13.831 10.062 27.473 22.827 39.067 37.748a189 189 0 0 1 15.858 23.832c4.745 8.385 8.828 17.207 12.344 26.262 3.485 9.068 6.429 18.358 8.692 27.764 2.297 9.392 3.888 18.911 4.886 28.346a214.5 214.5 0 0 1 1.058 27.951 217 217 0 0 1-.783 13.469c-.185 2.199-.452 4.396-.705 6.548-.224 2.141-.544 4.283-.859 6.381-2.487 16.775-6.803 31.678-10.828 42.523l-1.479 3.867-1.445 3.468c-.856 2.137-1.743 4.019-2.442 5.538-1.412 3.042-2.354 4.742-2.354 4.742-6.248 11.283-19.383 16.34-31.263 12.862 0 0-1.865-.545-5.009-1.713-1.565-.587-3.52-1.3-5.632-2.216l-3.467-1.448-3.772-1.707c-10.492-4.873-24.045-12.423-37.617-22.592-1.7-1.269-3.435-2.566-5.101-3.929-1.695-1.351-3.431-2.724-5.109-4.156a218 218 0 0 1-10.035-9.019c-6.594-6.312-12.976-13.203-18.918-20.604-5.93-7.405-11.499-15.288-16.476-23.578-5.011-8.276-9.458-16.948-13.362-25.843-3.874-8.908-7.181-18.049-9.711-27.345a189 189 0 0 1-5.503-28.092c-2.261-18.76-1.553-37.429 1.194-54.311 2.697-16.862 7.427-31.935 11.834-42.936a141 141 0 0 1 3.188-7.444l1.389-3.046 1.289-2.589c.74-1.535 1.442-2.767 1.871-3.58.443-.818.707-1.255.707-1.255 6.625-10.938 19.476-15.806 31.265-12.862"/><path fill="#FF6E83" d="M384.074 54.182s.265.437.707 1.255c.429.812 1.131 2.044 1.871 3.58l1.289 2.589 1.389 3.046a142 142 0 0 1 3.188 7.444c4.407 11.002 9.137 26.075 11.834 42.936 2.747 16.882 3.455 35.551 1.194 54.311a189 189 0 0 1-5.503 28.092c-2.53 9.297-5.836 18.438-9.711 27.345-3.905 8.895-8.351 17.567-13.362 25.843-4.977 8.29-10.545 16.172-16.476 23.578-5.942 7.401-12.324 14.292-18.918 20.604a217 217 0 0 1-10.035 9.019c-1.678 1.432-3.414 2.805-5.109 4.156-1.666 1.363-3.4 2.66-5.101 3.929-13.572 10.169-27.125 17.72-37.617 22.592l-3.772 1.707-3.467 1.448c-2.112.916-4.067 1.629-5.632 2.216-3.144 1.168-5.009 1.713-5.009 1.713-12.379 3.619-25.27-2.031-31.263-12.862 0 0-.941-1.7-2.354-4.742-.699-1.518-1.586-3.401-2.442-5.538l-1.445-3.468-1.479-3.867c-4.025-10.845-8.341-25.747-10.828-42.523-.315-2.099-.635-4.24-.859-6.381-.253-2.153-.521-4.35-.705-6.548-.394-4.408-.66-8.906-.783-13.469-.243-9.125.072-18.512 1.058-27.951.998-9.435 2.588-18.954 4.886-28.346 2.263-9.406 5.207-18.697 8.692-27.764 3.516-9.055 7.599-17.877 12.344-26.262a189.4 189.4 0 0 1 15.858-23.832c11.595-14.92 25.236-27.686 39.067-37.748 13.782-10.082 27.75-17.463 38.623-22.178a142 142 0 0 1 7.504-3.046l3.13-1.186 2.737-.933c1.606-.57 2.972-.952 3.848-1.227.89-.27 1.386-.394 1.386-.394 12.405-3.11 24.961 2.475 31.265 12.862"/></svg>